<?xml version="1.0" standalone="no"?>
<!DOCTYPE svg PUBLIC "-//W3C//DTD SVG 20010904//EN"
 "http://www.w3.org/TR/2001/REC-SVG-20010904/DTD/svg10.dtd">
<svg version="1.0" xmlns="http://www.w3.org/2000/svg"
 width="294.000000pt" height="294.000000pt" viewBox="0 0 294.000000 294.000000"
 preserveAspectRatio="xMidYMid meet">
<metadata>
Created by potrace 1.11, written by Peter Selinger 2001-2013
</metadata>
<g transform="translate(0.000000,294.000000) scale(0.100000,-0.100000)"
fill="#000000" stroke="none">
<path d="M1550 2890 c0 -5 5 -10 10 -10 6 0 10 5 10 10 0 6 -4 10 -10 10 -5 0
-10 -4 -10 -10z"/>
<path d="M1550 2860 c-13 -8 -12 -10 3 -10 9 0 17 5 17 10 0 12 -1 12 -20 0z"/>
<path d="M1506 2825 c-4 -20 -6 -39 -4 -41 8 -8 25 55 18 66 -4 7 -10 -3 -14
-25z"/>
<path d="M1577 2845 c-18 -13 -18 -14 0 -23 15 -8 18 -6 18 14 0 13 0 24 0 24
0 0 -8 -7 -18 -15z"/>
<path d="M1527 2795 c-4 -8 -1 -14 5 -12 6 1 13 -4 15 -10 3 -7 -2 -13 -10
-13 -9 0 -17 -8 -19 -17 -3 -14 -8 -10 -21 15 -20 37 -37 35 -29 -3 3 -19 0
-25 -12 -25 -10 0 -15 -3 -12 -8 2 -4 -2 -16 -10 -27 -8 -10 -14 -15 -14 -9 0
5 -9 -6 -20 -24 -11 -18 -17 -39 -13 -45 4 -7 8 -19 8 -27 0 -15 4 -16 48 -19
20 -1 19 -3 -12 -22 -18 -11 -36 -18 -39 -15 -3 4 -14 -2 -24 -11 -17 -15 -20
-15 -28 -3 -6 8 -10 13 -11 10 -9 -52 -9 -55 2 -40 8 12 10 12 7 1 -2 -8 -15
-16 -29 -18 -19 -2 -21 -1 -9 8 13 9 12 10 -3 5 -10 -3 -21 -6 -23 -6 -8 0 -4
-31 8 -50 15 -24 6 -34 -22 -25 -12 4 -19 13 -18 23 4 22 -28 27 -48 7 -13
-12 -14 -19 -4 -30 13 -16 11 -18 -38 -28 -15 -4 -22 -1 -19 6 2 7 -2 17 -9
24 -7 7 -11 21 -9 30 2 10 4 22 4 26 1 5 5 6 10 3 5 -3 14 0 20 8 9 11 4 13
-29 13 -25 0 -40 -4 -40 -12 0 -8 -9 -10 -26 -7 -18 3 -25 1 -20 -6 14 -23 -4
-57 -29 -57 -14 0 -25 4 -25 8 0 11 -72 78 -78 73 -2 -3 12 -21 32 -41 20 -19
36 -40 36 -46 0 -13 -65 -6 -83 10 -12 9 -17 9 -23 0 -5 -9 -10 -6 -16 10 -4
12 -13 19 -19 16 -6 -4 -8 -13 -5 -20 9 -24 -6 -24 -47 2 -22 14 -47 26 -55
27 -8 2 -18 10 -24 19 -7 13 -5 15 7 11 10 -4 15 0 15 10 0 10 -9 16 -24 16
-20 0 -23 -4 -20 -31 4 -29 2 -31 -22 -25 -21 6 -25 4 -21 -7 3 -8 0 -20 -6
-26 -8 -8 -5 -17 12 -35 21 -23 15 -46 -9 -31 -5 3 -10 -2 -10 -11 0 -16 -2
-16 -21 2 -15 13 -22 15 -28 6 -4 -6 -18 -13 -31 -15 -42 -7 -35 -26 9 -24 28
2 41 -2 41 -10 0 -7 9 -13 20 -13 24 0 26 -16 5 -37 -8 -8 -13 -19 -10 -23 3
-5 -3 -14 -13 -19 -15 -8 -24 -5 -41 10 -12 12 -25 18 -29 15 -3 -4 5 -14 19
-23 13 -10 35 -29 48 -43 13 -14 29 -24 37 -22 9 2 12 -3 8 -13 -3 -8 -10 -13
-14 -10 -9 6 -32 -19 -25 -27 3 -2 -2 -5 -10 -5 -8 0 -15 6 -15 14 0 7 8 13
18 13 14 0 15 2 2 10 -8 5 -12 12 -8 15 5 6 -37 55 -47 55 -3 0 -5 -7 -5 -15
0 -8 -5 -15 -12 -15 -6 0 -4 -8 6 -19 13 -14 14 -21 5 -27 -7 -4 -17 0 -24 9
-18 25 -20 22 -21 -28 -2 -55 -6 -60 -33 -45 -17 8 -21 8 -21 -4 0 -7 6 -16
14 -19 8 -3 12 -15 9 -31 -6 -27 -33 -45 -33 -21 0 8 -6 15 -12 16 -7 0 -30 2
-50 5 -42 5 -47 -2 -21 -22 12 -9 14 -13 5 -14 -8 0 -10 -5 -5 -12 4 -7 8 -34
9 -60 1 -37 -1 -45 -14 -41 -12 5 -12 2 2 -19 16 -24 16 -26 -4 -31 -11 -3
-20 -10 -20 -17 0 -6 6 -8 13 -5 6 4 4 0 -5 -8 -19 -15 -24 -62 -8 -72 7 -4 7
-12 0 -25 -6 -12 -7 -28 0 -44 13 -34 -3 -41 -26 -11 -13 17 -21 21 -31 14 -6
-6 -21 -8 -32 -4 -18 6 -20 3 -15 -23 4 -21 2 -31 -10 -35 -12 -5 -16 -17 -14
-43 2 -29 -3 -41 -25 -60 -15 -13 -27 -27 -26 -31 2 -16 -14 -53 -21 -48 -5 3
-13 -9 -19 -26 -6 -17 -15 -28 -20 -25 -10 6 -41 -47 -41 -71 0 -21 11 -16 40
19 17 20 27 26 28 17 1 -8 3 -25 6 -39 2 -14 4 -32 5 -40 3 -24 29 -53 41 -45
8 5 5 11 -7 21 -17 14 -17 14 2 12 16 -2 19 2 17 21 -2 15 0 21 7 17 6 -4 11
-4 12 1 5 57 27 106 45 99 7 -3 15 2 18 11 6 14 8 14 25 -1 17 -15 18 -15 29
9 19 42 40 31 38 -19 -1 -24 2 -42 6 -40 5 3 8 0 8 -5 0 -23 30 -9 36 17 9 35
23 44 42 26 10 -11 11 -18 3 -28 -6 -7 -9 -21 -5 -30 3 -9 1 -23 -6 -31 -10
-12 -10 -18 0 -30 7 -8 10 -24 7 -34 -3 -11 1 -28 9 -38 19 -25 17 -33 -6 -33
-21 0 -24 8 -20 50 2 21 0 22 -14 11 -11 -9 -15 -25 -12 -48 4 -37 16 -55 23
-35 9 23 23 12 23 -18 0 -16 4 -30 9 -30 5 0 7 -10 3 -22 l-5 -22 -8 22 c-5
12 -11 22 -13 22 -3 0 -3 -7 0 -15 4 -8 2 -15 -3 -15 -17 0 -31 22 -26 39 4 9
-4 3 -17 -13 -22 -27 -24 -27 -37 -10 -7 10 -13 13 -13 6 0 -6 12 -19 26 -29
14 -10 33 -26 42 -36 9 -9 24 -17 34 -17 24 0 23 -15 -3 -41 -20 -20 -19 -57
1 -44 5 3 10 -1 10 -10 0 -9 5 -13 11 -10 6 4 9 0 7 -11 -3 -16 3 -19 37 -17
44 1 75 -19 75 -49 0 -11 11 -23 28 -29 25 -10 26 -11 8 -21 -15 -8 -21 -8
-24 0 -2 7 -11 12 -20 12 -15 -1 -15 -2 1 -14 20 -15 22 -33 5 -38 -20 -7 -17
-38 7 -62 15 -15 28 -20 37 -15 7 5 20 9 28 9 10 0 7 -6 -9 -19 -13 -10 -32
-16 -41 -14 -10 3 -20 0 -24 -5 -6 -9 47 -26 71 -23 7 1 21 -7 33 -19 11 -11
27 -20 35 -20 8 0 15 -7 15 -17 0 -14 -2 -14 -20 2 -20 18 -21 18 -14 -1 4
-10 12 -22 17 -25 5 -4 -3 -18 -18 -33 -26 -26 -26 -28 -10 -46 13 -14 14 -23
6 -38 -9 -17 -7 -21 17 -27 49 -14 81 -9 107 15 14 13 25 18 25 11 0 -7 4 -10
9 -7 23 15 39 -40 16 -56 -5 -4 7 -8 28 -8 20 0 37 -5 37 -11 0 -6 9 -8 22 -4
17 6 20 4 15 -10 -6 -14 -1 -16 26 -14 57 4 77 0 77 -17 0 -10 6 -13 19 -9 10
3 31 1 46 -5 20 -8 30 -8 35 0 5 7 11 6 19 -4 7 -8 22 -13 33 -11 29 6 81 -23
74 -41 -5 -14 4 -18 34 -15 10 1 11 -1 3 -6 -8 -6 -2 -19 22 -46 29 -32 55
-51 42 -29 -3 4 6 7 19 7 13 0 24 -3 24 -6 0 -11 50 -40 77 -45 15 -3 34 -9
45 -15 14 -7 18 -6 18 5 0 9 -6 13 -12 11 -7 -2 -23 4 -36 15 -19 16 -21 23
-12 40 12 22 25 26 35 10 7 -11 36 -1 53 19 8 9 10 10 7 3 -6 -11 -3 -11 15 0
18 11 23 11 36 -6 8 -11 14 -16 14 -10 0 5 7 17 14 27 11 14 18 15 37 7 19 -8
20 -10 4 -7 -11 2 -26 -2 -33 -10 -11 -11 -8 -13 23 -10 19 3 38 7 41 10 11
11 -7 26 -39 32 -29 6 -65 40 -54 51 8 9 37 -8 37 -22 0 -17 17 -19 22 -2 3 7
12 4 27 -11 l22 -22 40 21 40 20 -6 -21 c-6 -19 -4 -20 27 -14 42 9 48 13 48
31 0 8 5 14 10 14 6 0 10 -4 10 -10 0 -25 52 -8 90 30 22 22 47 40 55 40 8 0
15 5 15 10 0 6 -5 10 -12 10 -21 0 7 21 30 23 11 0 19 4 16 8 -2 4 2 10 8 13
7 3 3 3 -9 1 -12 -3 -24 -1 -28 5 -4 6 4 10 19 10 14 0 28 -5 32 -11 4 -8 11
-3 20 12 l12 24 7 -28 c4 -15 11 -27 16 -27 5 0 8 -3 8 -7 -1 -5 -1 -15 0 -23
1 -12 4 -12 12 3 15 25 43 23 29 -2 -7 -14 -7 -22 1 -27 6 -3 9 -15 6 -25 -3
-11 -1 -19 4 -19 4 0 6 -7 2 -16 -4 -10 -14 -14 -29 -11 -13 2 -24 0 -24 -4 0
-8 23 -13 43 -10 10 1 9 -7 -4 -30 -5 -11 -14 -17 -19 -14 -6 4 -6 -4 0 -19 9
-24 6 -30 -12 -27 -13 2 -9 -9 11 -30 16 -17 20 -18 30 -5 7 8 10 20 6 26 -3
5 -1 10 6 10 6 0 9 8 6 20 -3 12 -1 18 5 14 7 -5 9 2 4 20 -3 14 -2 26 2 26 5
0 13 15 18 32 6 20 17 34 29 37 11 2 17 0 13 -4 -4 -4 -2 -17 4 -29 15 -28 19
-66 7 -66 -6 0 -7 -4 -4 -10 3 -5 2 -10 -4 -10 -5 0 -12 8 -14 18 -3 10 -5 6
-6 -10 -1 -19 4 -28 14 -28 25 0 42 22 37 46 -3 15 3 26 16 33 15 8 19 19 17
45 -3 36 17 111 28 100 8 -8 77 -8 85 0 3 4 -4 13 -16 22 -12 8 -22 22 -22 31
0 9 -6 13 -14 10 -9 -4 -17 2 -21 13 -9 28 3 44 21 29 8 -6 14 -8 14 -4 0 4
11 0 25 -9 36 -24 31 -6 -7 26 -32 26 -32 27 -14 41 11 8 20 25 21 38 1 18 9
25 30 29 26 5 25 6 -18 18 -35 11 -44 18 -40 30 4 8 2 13 -3 10 -5 -4 -10 5
-10 18 -2 23 9 29 44 25 6 -1 12 3 12 8 0 12 39 26 62 22 9 -1 19 3 23 8 3 7
0 8 -9 5 -9 -3 -16 -1 -16 6 0 6 -4 8 -10 5 -6 -3 -7 1 -4 10 4 10 14 15 25
12 12 -3 19 0 19 9 0 8 5 14 10 14 6 0 10 -4 10 -10 0 -5 5 -10 12 -10 7 0 5
7 -5 18 -9 10 -15 28 -12 40 3 17 -1 22 -18 23 -21 1 -20 2 3 9 14 4 21 8 15
9 -5 1 4 10 20 21 17 11 25 20 20 20 -6 0 -17 -6 -24 -12 -10 -11 -11 -9 -5 5
5 13 1 20 -14 24 -11 2 -22 13 -25 24 -3 10 -2 17 1 15 4 -2 16 0 27 5 16 6
17 8 3 8 -13 1 -17 9 -15 31 2 30 11 38 22 20 3 -5 11 -10 16 -10 19 0 -16 27
-44 34 -18 4 -27 13 -27 26 0 11 5 20 10 20 6 0 10 -3 10 -7 0 -5 12 -13 26
-20 20 -9 26 -9 31 3 3 8 9 14 14 14 4 0 6 -7 3 -15 -4 -8 -1 -15 6 -15 12 0
11 22 -5 65 -7 20 -7 20 10 0 12 -16 17 -17 24 -6 7 10 13 11 30 2 11 -7 21
-8 21 -3 0 17 -33 37 -56 34 -18 -3 -22 0 -18 12 3 9 10 16 15 16 6 0 5 8 -1
19 -13 26 -13 52 1 28 6 -9 14 -15 20 -12 5 4 9 0 9 -7 0 -10 2 -10 9 1 7 11
11 10 20 -5 11 -17 11 -16 5 5 -5 18 -3 22 7 15 11 -6 11 -4 0 10 -16 19 -23
58 -9 50 4 -3 8 -1 8 4 0 6 -7 12 -15 16 -8 3 -15 10 -15 16 0 6 4 9 9 6 5 -3
12 1 15 10 3 8 11 12 17 8 8 -4 7 1 -1 16 -7 12 -17 19 -26 16 -9 -4 -14 2
-14 17 -1 21 -1 21 -15 3 -16 -21 -34 -14 -32 14 1 22 13 27 20 8 3 -9 7 -7
12 5 5 11 3 23 -5 30 -10 9 -11 9 -6 0 9 -16 -6 -17 -22 -1 -14 14 -16 32 -3
24 5 -4 12 0 15 6 3 9 10 7 23 -7 23 -25 48 -32 40 -10 -4 8 -2 15 3 15 5 0
11 -8 13 -18 4 -15 5 -15 6 1 0 10 7 17 14 14 6 -2 11 -10 9 -16 -1 -7 2 -9 8
-6 8 5 6 13 -4 24 -21 23 -20 28 6 27 15 -1 22 5 23 21 1 12 -1 20 -5 18 -4
-2 -13 4 -22 14 -14 16 -14 19 3 29 13 9 18 8 23 -3 5 -15 43 -12 60 5 7 7 3
15 -12 26 -21 15 -32 42 -12 29 6 -3 10 -1 10 5 0 6 -8 10 -17 8 -10 -1 -24 1
-30 5 -7 5 -23 10 -35 12 -26 5 -38 22 -38 53 0 14 -6 22 -17 22 -16 1 -16 2
2 16 11 8 27 19 35 24 21 12 5 24 -17 12 -20 -11 -63 1 -63 18 0 6 4 9 9 5 6
-3 13 1 18 8 4 7 15 16 24 19 9 4 19 16 22 28 4 16 2 20 -10 16 -10 -4 -18 3
-26 23 -6 16 -19 32 -29 34 -10 3 -18 10 -18 17 0 6 4 9 8 6 4 -2 14 -1 22 5
10 5 11 9 3 9 -7 0 -10 7 -7 15 4 11 -1 15 -17 15 -13 0 -31 5 -39 10 -13 9
-13 11 -1 19 8 5 20 7 28 4 7 -3 13 0 13 6 0 6 3 10 8 10 19 -3 22 2 7 17 -12
13 -13 19 -4 30 10 12 9 13 -5 8 -11 -4 -16 -1 -16 10 0 9 5 16 10 16 6 0 10
5 10 10 0 6 -11 10 -25 10 -14 0 -25 5 -25 11 0 5 -8 9 -17 8 -31 -3 -43 1
-43 12 0 8 5 8 15 -1 10 -8 15 -9 15 -2 0 6 -9 16 -20 22 -14 7 -20 7 -20 0 0
-24 -28 -7 -34 21 -5 27 -8 30 -21 19 -24 -20 -50 10 -54 64 -1 5 -9 2 -18 -5
-15 -12 -16 -12 -8 1 8 13 7 13 -9 1 -12 -10 -20 -11 -24 -4 -4 6 -21 15 -37
19 -17 4 -36 11 -42 17 -17 13 -18 -14 -1 -31 7 -7 8 -12 2 -12 -12 0 -34 43
-34 65 0 8 -15 17 -35 21 -19 3 -38 10 -41 15 -3 5 -9 7 -14 4 -5 -3 -8 3 -8
12 1 10 -2 34 -6 54 -5 29 -10 36 -25 32 -12 -3 -17 -12 -15 -29 2 -20 -1 -23
-11 -14 -13 11 -45 4 -45 -11 0 -5 -7 -9 -17 -9 -9 0 -14 -3 -10 -6 3 -4 0
-13 -8 -20 -17 -18 -31 -18 -17 -1 13 15 12 58 -1 50 -4 -2 -14 1 -22 7 -11 9
-15 9 -15 1 0 -8 -10 -6 -31 4 -38 20 -89 68 -89 84 0 9 -5 9 -20 1 -16 -9
-20 -8 -20 5 0 8 -7 15 -15 15 -8 0 -15 5 -15 10 0 6 -9 10 -21 10 -12 0 -37
17 -56 38 -19 20 -28 26 -19 12 23 -35 20 -46 -6 -20 -13 11 -26 21 -31 20 -4
0 -18 10 -30 22 -26 27 -97 37 -97 13 0 -8 -4 -15 -9 -15 -5 0 -8 8 -7 17 1
13 -7 17 -31 17 -28 0 -30 2 -21 19 6 11 13 15 17 10 3 -5 16 -12 28 -15 16
-4 20 -2 16 8 -3 8 -9 11 -15 8 -5 -3 -2 8 6 25 9 17 16 33 16 36 0 3 12 17
27 31 24 21 24 23 6 14 -13 -6 -23 -7 -23 -3 0 4 -5 1 -10 -7 -8 -12 -10 -10
-10 10 0 19 -3 22 -9 11 -8 -12 -13 -12 -24 -3 -12 10 -16 9 -20 -3z m-50 -89
c-4 -9 1 -17 12 -21 26 -8 15 -54 -15 -67 -13 -6 -24 -17 -24 -25 0 -7 -7 -13
-15 -13 -21 0 -19 13 5 30 11 8 20 20 20 27 0 7 7 13 15 13 8 0 15 4 15 9 0 5
-7 14 -15 21 -17 15 -20 40 -4 40 6 0 9 -7 6 -14z m-47 -76 c0 -5 -2 -10 -4
-10 -3 0 -8 5 -11 10 -3 6 -1 10 4 10 6 0 11 -4 11 -10z m110 -11 c0 -6 -4 -8
-9 -4 -5 3 -11 -3 -14 -12 -4 -17 -4 -17 -12 1 -5 12 -3 21 6 26 15 10 29 4
29 -11z m80 -5 c0 -14 -12 -19 -23 -8 -9 9 4 35 14 28 5 -3 9 -12 9 -20z m-10
-61 c0 -6 6 -13 13 -16 6 -2 10 -7 7 -10 -10 -11 -53 35 -56 61 l-3 27 19 -25
c11 -14 20 -30 20 -37z m-100 -58 c10 -12 10 -15 -4 -15 -9 0 -16 7 -16 15 0
8 2 15 4 15 2 0 9 -7 16 -15z m-111 -11 c7 4 11 -1 11 -13 0 -25 -37 -48 -53
-32 -7 7 -7 18 2 38 9 20 15 23 21 14 4 -8 13 -10 19 -7z m47 -20 c-3 -9 -6
-21 -6 -28 0 -7 -11 -12 -25 -12 -24 0 -24 0 -5 18 11 11 20 23 20 28 0 6 5
10 11 10 6 0 8 -7 5 -16z m474 9 c0 -10 -19 -40 -21 -33 0 3 -2 13 -4 23 -2 9
3 17 11 17 8 0 14 -3 14 -7z m-310 -53 c0 -5 -4 -10 -10 -10 -5 0 -10 5 -10
10 0 6 5 10 10 10 6 0 10 -4 10 -10z m-535 -20 c3 -5 1 -10 -4 -10 -6 0 -11 5
-11 10 0 6 2 10 4 10 3 0 8 -4 11 -10z m945 -19 c0 -5 -8 -7 -18 -4 -10 2 -19
11 -19 18 0 10 5 11 19 4 10 -5 18 -14 18 -18z m150 7 c0 -18 -2 -20 -9 -8 -6
8 -7 18 -5 22 9 14 14 9 14 -14z m-660 3 c0 -6 -5 -13 -10 -16 -6 -4 -8 -11
-5 -16 4 -5 1 -9 -5 -9 -7 0 -9 7 -6 16 3 9 6 20 6 25 0 5 5 9 10 9 6 0 10 -4
10 -9z m-510 -17 c0 -8 -4 -12 -10 -9 -5 3 -10 10 -10 16 0 5 5 9 10 9 6 0 10
-7 10 -16z m229 -26 c1 -10 -33 -10 -42 -1 -4 3 1 14 11 23 15 15 18 16 24 1
4 -9 7 -19 7 -23z m85 26 c4 -10 1 -14 -6 -12 -15 5 -23 28 -10 28 5 0 13 -7
16 -16z m-514 -15 c0 -4 -7 -6 -15 -3 -8 4 -15 10 -15 15 0 4 7 6 15 3 8 -4
15 -10 15 -15z m1416 -16 c-4 -4 -11 -1 -16 7 -16 25 -11 35 7 17 9 -9 13 -20
9 -24z m-1509 1 c-3 -4 -14 -3 -24 0 -15 6 -15 8 -3 16 16 10 39 -4 27 -16z
m933 12 c0 -2 -7 -7 -16 -10 -8 -3 -12 -2 -9 4 6 10 25 14 25 6z m540 -17 c0
-12 -6 -16 -20 -12 -16 4 -20 0 -20 -17 0 -16 4 -20 15 -16 8 3 15 1 15 -4 0
-17 -29 -11 -50 10 -11 11 -20 27 -20 35 0 13 4 14 20 5 18 -10 23 -7 22 10 0
3 8 6 19 6 11 0 19 -7 19 -17z m-670 -9 c0 -5 -7 -7 -15 -4 -8 4 -15 8 -15 10
0 2 7 4 15 4 8 0 15 -4 15 -10z m-253 -26 c-3 -3 -12 -4 -19 -1 -8 3 -5 6 6 6
11 1 17 -2 13 -5z m807 -20 c3 -8 2 -12 -4 -9 -6 3 -10 10 -10 16 0 14 7 11
14 -7z m-1334 -66 c0 -4 -7 -8 -16 -8 -8 0 -12 -4 -9 -10 3 -5 2 -10 -3 -10
-5 0 -12 9 -15 20 -4 16 0 19 19 18 13 -1 24 -6 24 -10z m107 -80 c-3 -8 -6
-5 -6 6 -1 11 2 17 5 13 3 -3 4 -12 1 -19z m-167 -12 c0 -3 -4 -8 -10 -11 -5
-3 -10 -1 -10 4 0 6 5 11 10 11 6 0 10 -2 10 -4z m287 -42 c-9 -9 -28 6 -21
18 4 6 10 6 17 -1 6 -6 8 -13 4 -17z m-577 -124 c0 -11 -7 -20 -15 -20 -18 0
-19 6 -2 25 16 19 17 18 17 -5z m2320 -31 c0 -5 -10 -9 -21 -9 -18 0 -19 2 -9
15 12 15 30 12 30 -6z m-2275 -208 c3 -5 1 -12 -5 -16 -5 -3 -10 1 -10 9 0 18
6 21 15 7z m-165 -145 c0 -7 3 -6 9 2 6 10 10 8 14 -8 7 -27 -12 -60 -33 -60
-12 0 -16 12 -18 45 -1 35 1 43 13 39 8 -4 15 -11 15 -18z m2614 -22 c3 -8 2
-12 -4 -9 -6 3 -10 10 -10 16 0 14 7 11 14 -7z m-2520 -53 c-3 -9 -7 -21 -7
-27 -1 -18 -32 -9 -32 9 0 8 -3 19 -7 23 -4 3 -3 15 3 26 10 19 11 19 30 2 12
-11 17 -24 13 -33z m1911 39 c3 -5 1 -10 -4 -10 -6 0 -11 5 -11 10 0 6 2 10 4
10 3 0 8 -4 11 -10z m-2045 -20 c0 -5 -5 -10 -11 -10 -5 0 -7 5 -4 10 3 6 8
10 11 10 2 0 4 -4 4 -10z m2560 -60 c8 -5 11 -12 7 -17 -5 -4 -12 -1 -16 6 -5
7 -14 10 -20 7 -6 -4 -11 -2 -11 3 0 13 20 14 40 1z m65 0 c3 -6 -1 -7 -9 -4
-18 7 -21 14 -7 14 6 0 13 -4 16 -10z m-2609 -14 c3 -8 13 -12 23 -9 21 5 35
-20 26 -47 -8 -26 -49 -18 -53 11 -2 13 -10 28 -18 32 -8 4 -14 12 -14 17 0
15 30 12 36 -4z m244 -41 c10 -12 10 -15 -4 -15 -9 0 -16 7 -16 15 0 8 2 15 4
15 2 0 9 -7 16 -15z m2205 -15 c3 -5 2 -10 -4 -10 -5 0 -13 5 -16 10 -3 6 -2
10 4 10 5 0 13 -4 16 -10z m-10 -40 c3 -5 1 -10 -4 -10 -6 0 -11 5 -11 10 0 6
2 10 4 10 3 0 8 -4 11 -10z m42 -80 c9 -16 21 -30 25 -30 4 0 8 -12 8 -26 l0
-27 -24 26 c-14 15 -27 36 -31 47 -3 11 -11 20 -16 20 -6 0 -7 5 -4 10 11 17
23 11 42 -20z m-89 -117 c2 -16 -3 -20 -28 -21 -30 -1 -40 11 -20 23 6 4 8 11
5 16 -4 5 4 7 17 6 14 -3 24 -12 26 -24z m39 -13 c0 -16 -5 -30 -10 -30 -6 0
-7 3 -4 7 4 3 2 12 -4 20 -9 10 -8 13 0 13 7 0 9 5 6 10 -3 6 -2 10 3 10 5 0
9 -13 9 -30z m-131 -67 c-4 -4 -11 -1 -16 7 -16 25 -11 35 7 17 9 -9 13 -20 9
-24z m126 5 c-7 -7 -12 -8 -12 -2 0 14 12 26 19 19 2 -3 -1 -11 -7 -17z m-77
2 c-3 -5 -10 -10 -16 -10 -5 0 -9 5 -9 10 0 6 7 10 16 10 8 0 12 -4 9 -10z
m-22 -50 c3 -11 1 -23 -4 -26 -5 -3 -9 -1 -9 5 0 5 -3 16 -6 25 -3 9 -2 16 4
16 5 0 12 -9 15 -20z m-2106 -36 c-3 -3 -12 -4 -19 -1 -8 3 -5 6 6 6 11 1 17
-2 13 -5z m8 -54 c3 -5 1 -10 -4 -10 -6 0 -11 5 -11 10 0 6 2 10 4 10 3 0 8
-4 11 -10z m2147 -182 c-9 -9 -15 -9 -24 0 -9 9 -7 12 12 12 19 0 21 -3 12
-12z m-67 -88 c3 -5 1 -10 -4 -10 -6 0 -11 5 -11 10 0 6 2 10 4 10 3 0 8 -4
11 -10z m-105 -25 c-7 -9 -15 -13 -19 -10 -3 3 1 10 9 15 21 14 24 12 10 -5z
m-1656 -211 c7 -19 -2 -37 -15 -29 -17 11 -31 -6 -18 -21 6 -7 8 -21 5 -30 -5
-14 -7 -14 -22 0 -8 9 -12 21 -9 27 5 6 0 9 -11 8 -24 -4 -44 8 -44 26 0 11
30 21 101 34 4 0 10 -6 13 -15z m1666 -108 c0 -6 -7 -2 -15 8 -8 11 -15 25
-15 30 0 6 7 2 15 -8 8 -11 15 -25 15 -30z m37 7 c2 -6 -2 -13 -10 -16 -8 -3
-13 3 -14 15 -2 20 18 21 24 1z m-1538 -25 c14 -6 29 -12 33 -12 3 -1 10 -5
15 -9 4 -5 -10 -6 -32 -2 -47 9 -41 5 -49 35 -3 14 -3 19 0 12 3 -7 18 -18 33
-24z m109 -17 c1 -1 -3 -7 -10 -15 -15 -15 -38 -10 -38 8 0 10 25 13 48 7z
m62 -40 c0 -4 -9 -7 -20 -7 -20 0 -25 7 -14 19 7 7 34 -2 34 -12z m40 -2 c0
-6 -4 -7 -10 -4 -5 3 -10 11 -10 16 0 6 5 7 10 4 6 -3 10 -11 10 -16z m1120
11 c0 -5 -5 -10 -11 -10 -5 0 -7 5 -4 10 3 6 8 10 11 10 2 0 4 -4 4 -10z
m-290 -30 c0 -5 -4 -10 -10 -10 -5 0 -10 5 -10 10 0 6 5 10 10 10 6 0 10 -4
10 -10z m304 -26 c5 -14 4 -15 -9 -4 -17 14 -19 20 -6 20 5 0 12 -7 15 -16z
m-662 -26 c-7 -7 -12 -8 -12 -2 0 14 12 26 19 19 2 -3 -1 -11 -7 -17z m233 3
c3 -5 1 -12 -5 -16 -5 -3 -10 1 -10 9 0 18 6 21 15 7z m-75 -11 c0 -5 -7 -10
-16 -10 -8 0 -12 5 -9 10 3 6 10 10 16 10 5 0 9 -4 9 -10z m-325 -110 c3 -5 2
-10 -4 -10 -5 0 -13 5 -16 10 -3 6 -2 10 4 10 5 0 13 -4 16 -10z"/>
<path d="M1793 2664 c-12 -6 -7 -34 7 -34 4 0 10 9 13 20 5 20 2 22 -20 14z"/>
<path d="M1725 2640 c3 -5 8 -10 11 -10 2 0 4 5 4 10 0 6 -5 10 -11 10 -5 0
-7 -4 -4 -10z"/>
<path d="M1798 2604 c12 -23 42 -51 42 -39 0 4 7 2 15 -5 10 -9 15 -9 15 -1 0
10 -14 15 -24 9 -2 -2 -16 11 -31 27 -17 19 -23 22 -17 9z"/>
<path d="M400 2425 c0 -31 72 -86 85 -65 4 6 1 10 -4 10 -13 0 -51 36 -51 49
0 5 -7 11 -15 15 -9 3 -15 0 -15 -9z"/>
<path d="M2120 2430 c0 -5 5 -10 11 -10 5 0 7 5 4 10 -3 6 -8 10 -11 10 -2 0
-4 -4 -4 -10z"/>
<path d="M580 2396 c0 -2 8 -10 18 -17 15 -13 16 -12 3 4 -13 16 -21 21 -21
13z"/>
<path d="M2270 2385 c7 -9 15 -13 17 -11 7 7 -7 26 -19 26 -6 0 -6 -6 2 -15z"/>
<path d="M486 2324 c-4 -9 -2 -22 4 -29 5 -6 7 -15 3 -19 -4 -4 0 -4 10 0 14
5 15 9 6 20 -6 8 -9 21 -5 29 3 8 1 15 -3 15 -5 0 -12 -7 -15 -16z"/>
<path d="M2390 2299 c0 -5 5 -7 10 -4 6 3 10 8 10 11 0 2 -4 4 -10 4 -5 0 -10
-5 -10 -11z"/>
<path d="M2480 2300 c-13 -8 -12 -10 3 -10 9 0 17 5 17 10 0 12 -1 12 -20 0z"/>
<path d="M565 2230 c-3 -5 -1 -10 4 -10 6 0 11 5 11 10 0 6 -2 10 -4 10 -3 0
-8 -4 -11 -10z"/>
<path d="M360 2052 c0 -12 19 -26 26 -19 2 2 -2 10 -11 17 -9 8 -15 8 -15 2z"/>
<path d="M2832 1718 c5 -15 28 -23 28 -10 0 5 -7 13 -16 16 -10 4 -14 1 -12
-6z"/>
<path d="M170 1629 c11 -8 12 -12 3 -16 -7 -2 -13 -11 -13 -19 0 -16 2 -16 23
-8 19 7 10 54 -12 54 -14 0 -14 -2 -1 -11z"/>
<path d="M115 1620 c3 -5 8 -10 11 -10 2 0 4 5 4 10 0 6 -5 10 -11 10 -5 0 -7
-4 -4 -10z"/>
<path d="M290 1299 c0 -5 5 -7 10 -4 6 3 10 8 10 11 0 2 -4 4 -10 4 -5 0 -10
-5 -10 -11z"/>
<path d="M57 1193 c-4 -3 -7 -11 -7 -17 0 -6 5 -5 12 2 6 6 9 14 7 17 -3 3 -9
2 -12 -2z"/>
<path d="M350 1090 c0 -5 5 -10 11 -10 5 0 7 5 4 10 -3 6 -8 10 -11 10 -2 0
-4 -4 -4 -10z"/>
<path d="M2500 601 c0 -14 25 -31 46 -31 39 0 35 16 -7 27 -21 5 -39 7 -39 4z"/>
<path d="M611 524 c0 -11 3 -14 6 -6 3 7 2 16 -1 19 -3 4 -6 -2 -5 -13z"/>
<path d="M2540 429 c0 -5 5 -7 10 -4 6 3 10 8 10 11 0 2 -4 4 -10 4 -5 0 -10
-5 -10 -11z"/>
<path d="M2166 303 c-6 -14 -5 -15 5 -6 7 7 10 15 7 18 -3 3 -9 -2 -12 -12z"/>
<path d="M2506 255 c4 -8 13 -15 21 -15 12 0 12 2 -1 15 -8 8 -17 15 -20 15
-3 0 -3 -7 0 -15z"/>
<path d="M2133 245 c-3 -9 -3 -19 1 -22 3 -4 6 1 6 10 0 8 6 18 13 20 9 4 9 6
-1 6 -7 1 -15 -6 -19 -14z"/>
<path d="M2227 226 c-4 -10 -1 -13 8 -9 8 3 12 9 9 14 -7 12 -11 11 -17 -5z"/>
<path d="M2225 140 c-3 -5 -1 -10 4 -10 6 0 11 5 11 10 0 6 -2 10 -4 10 -3 0
-8 -4 -11 -10z"/>
<path d="M1618 53 c6 -2 18 -2 25 0 6 3 1 5 -13 5 -14 0 -19 -2 -12 -5z"/>
</g>
</svg>
